REM DIRINDEX 1\2,1\3
REM DIRNAME folder01,folder02,folder03
TITLE ""
FILE "Disk3Track63.mp3" MP3
  TRACK 01 AUDIO
    TITLE "2:cjc052_1580"
    INDEX 01 00:00:00
  TRACK 02 AUDIO
    TITLE "2:cjc052_1581"
    INDEX 01 00:03:72
  TRACK 03 AUDIO
    TITLE "2:cjc052_1582"
    INDEX 01 00:09:16
  TRACK 04 AUDIO
    TITLE "2:cjc052_1583"
    INDEX 01 00:17:47
  TRACK 05 AUDIO
    TITLE "2:cjc052_1584"
    INDEX 01 00:32:70
  TRACK 06 AUDIO
    TITLE "0:"
    INDEX 01 00:39:29
